<svg t="1691044645226" class="icon" viewBox="0 0 1024 1024" version="1.1" xmlns="http://www.w3.org/2000/svg" p-id="5137"
    width="200" height="200">
    <path
        d="M810.666667 85.333333H213.333333C140.8 85.333333 85.333333 140.8 85.333333 213.333333v597.333334c0 72.533333 55.466667 128 128 128h597.333334c72.533333 0 128-55.466667 128-128V213.333333c0-72.533333-55.466667-128-128-128zM170.666667 213.333333c0-25.6 17.066667-42.666667 42.666666-42.666666h597.333334c25.6 0 42.666667 17.066667 42.666666 42.666666v324.266667l-140.8-140.8c-17.066667-17.066667-42.666667-17.066667-59.733333 0L200.533333 849.066667c-17.066667-4.266667-29.866667-21.333333-29.866666-38.4V213.333333z m640 640H315.733333l366.933334-366.933333 170.666666 170.666667V810.666667c0 25.6-17.066667 42.666667-42.666666 42.666666z"
        p-id="5138"></path>
    <path
        d="M362.666667 469.333333C422.4 469.333333 469.333333 422.4 469.333333 362.666667S422.4 256 362.666667 256 256 302.933333 256 362.666667 302.933333 469.333333 362.666667 469.333333z m0-128c12.8 0 21.333333 8.533333 21.333333 21.333334s-8.533333 21.333333-21.333333 21.333333-21.333333-8.533333-21.333334-21.333333 8.533333-21.333333 21.333334-21.333334z"
        p-id="5139"></path>
</svg>