<svg t="1690376253358" class="icon" viewBox="0 0 1024 1024" version="1.1" xmlns="http://www.w3.org/2000/svg"
    p-id="10081" width="200" height="200">
    <path
        d="M900.266667 123.733333a129.152 129.152 0 0 0-123.733334-34.133333L217.216 229.205333A171.477333 171.477333 0 0 0 85.333333 399.274667 171.605333 171.605333 0 0 0 219.562667 567.466667l192 45.098666 44.970666 191.872A171.562667 171.562667 0 0 0 624.725333 938.666667h1.28a171.477333 171.477333 0 0 0 168.832-131.84L934.698667 247.466667a129.194667 129.194667 0 0 0-34.432-123.733334z m-48.341334 102.912l-139.904 559.488A84.309333 84.309333 0 0 1 625.28 853.333333a85.333333 85.333333 0 0 1-85.717333-68.266666l-45.781334-194.56 176.384-176.341334a42.666667 42.666667 0 0 0-60.330666-60.330666l-176.384 176.341333L238.933333 484.437333A85.333333 85.333333 0 0 1 170.666667 398.72a85.589333 85.589333 0 0 1 67.242666-86.741333l559.488-139.904A48.298667 48.298667 0 0 1 808.789333 170.666667a44.757333 44.757333 0 0 1 31.317334 13.269333 44.330667 44.330667 0 0 1 11.818666 42.709333z"
        p-id="10082"></path>
</svg>